# xmcd
#
# Track frame offsets: 
#        150
#        20684
#        44124
#        62565
#        85550
#        108464
#        127369
#        150415
#        172705
#        189114
#        207630
#        227532
#
# Disc length: 3377 seconds
#
# Revision: 0
# Processed by: cddbd v1.5.2PL0 Copyright (c) Steve Scherf et al.
# Submitted via: ExactAudioCopyFreeDBPlugin 1.0
#
DISCID=990d2f0c
DTITLE=為岡 そのみ - フルコース
DYEAR=2013
DGENRE=R&B
TTITLE0=恐妻
TTITLE1=Rendezvous
TTITLE2=delete
TTITLE3=I'm here
TTITLE4=退行催眠
TTITLE5=リスタート
TTITLE6=lovesick
TTITLE7=揺れるココロ
TTITLE8=蘇州夜曲
TTITLE9=イミテーション・ラヴ
TTITLE10=TALK TO YOU
TTITLE11=MOTHER
EXTD=
EXTT0=
EXTT1=
EXTT2=
EXTT3=
EXTT4=
EXTT5=
EXTT6=
EXTT7=
EXTT8=
EXTT9=
EXTT10=
EXTT11=
PLAYORDER=
